<?xml version="1.0" standalone="no"?>
<!DOCTYPE svg PUBLIC "-//W3C//DTD SVG 20010904//EN"
 "http://www.w3.org/TR/2001/REC-SVG-20010904/DTD/svg10.dtd">
<svg version="1.0" xmlns="http://www.w3.org/2000/svg"
 width="584.000000pt" height="584.000000pt" viewBox="0 0 584.000000 584.000000"
 preserveAspectRatio="xMidYMid meet">
<metadata>
Created by potrace 1.14, written by Peter Selinger 2001-2017
</metadata>
<g transform="translate(0.000000,584.000000) scale(0.100000,-0.100000)"
fill="#000000" stroke="none">
<path d="M2157 5794 c-2 -2 -28 -6 -58 -9 -30 -2 -65 -6 -79 -9 -14 -3 -43 -7
-65 -10 -146 -18 -438 -104 -567 -167 -32 -15 -58 -24 -58 -21 0 4 -4 3 -8 -3
-4 -5 -34 -23 -67 -40 -59 -30 -118 -65 -142 -85 -7 -5 -15 -10 -19 -10 -9 0
-163 -110 -206 -147 -97 -83 -210 -196 -268 -265 -14 -17 -35 -42 -48 -57 -50
-57 -174 -252 -229 -361 -79 -153 -151 -349 -188 -505 -9 -38 -19 -81 -22 -95
-3 -14 -7 -34 -8 -45 -1 -11 -8 -48 -14 -82 -6 -34 -11 -65 -10 -70 1 -4 0
-10 -1 -13 -5 -11 -9 -62 -15 -218 -3 -90 -6 -167 -7 -170 0 -4 0 -9 1 -12 1
-3 4 -41 6 -85 6 -100 19 -231 31 -295 4 -19 8 -44 10 -55 1 -11 10 -56 19
-100 9 -44 18 -87 19 -95 2 -8 9 -35 16 -60 7 -25 13 -49 14 -55 2 -5 13 -41
25 -80 12 -38 24 -77 26 -86 20 -95 268 -634 298 -647 4 -2 7 -8 7 -13 0 -5
21 -41 47 -81 26 -40 53 -83 59 -95 12 -21 170 -238 189 -259 23 -26 55 -64
55 -67 0 -16 328 -352 425 -434 33 -29 70 -60 81 -70 12 -10 36 -29 54 -43 19
-14 45 -34 59 -46 160 -128 480 -319 694 -413 26 -12 66 -29 90 -40 107 -47
359 -131 439 -146 11 -2 28 -7 38 -10 20 -6 50 -13 90 -21 24 -4 50 -9 100
-19 59 -12 110 -19 230 -32 96 -10 458 -10 530 0 30 4 75 10 100 13 25 3 56 7
70 10 30 6 78 15 105 19 11 2 20 4 20 5 0 1 7 3 15 5 8 1 42 10 75 19 33 9 70
19 83 22 12 2 47 14 77 25 30 11 57 20 60 20 8 0 155 68 240 111 78 40 279
167 322 204 11 11 41 35 65 54 97 78 328 324 328 349 0 6 4 11 8 11 8 0 114
157 148 220 10 19 22 37 25 40 7 7 86 172 111 235 29 70 95 274 102 310 2 17
7 41 10 55 3 14 9 41 12 60 4 19 9 39 12 45 3 5 7 21 8 35 7 76 13 125 15 125
3 0 6 45 13 173 3 68 7 126 7 130 1 4 1 9 0 12 -1 3 -4 66 -6 140 -3 74 -7
145 -9 157 -3 12 -8 53 -11 90 -4 37 -9 71 -11 74 -2 4 -6 24 -9 45 -22 146
-87 400 -140 539 -14 39 -28 77 -30 85 -2 8 -4 16 -5 18 -2 1 -3 5 -5 10 -1 4
-12 29 -24 57 -12 27 -29 66 -37 85 -43 98 -156 314 -219 415 -14 22 -30 50
-37 63 -6 12 -15 22 -20 22 -4 0 -8 6 -8 13 0 7 -8 22 -17 33 -10 11 -38 49
-62 84 -25 36 -48 67 -53 68 -4 2 -8 8 -8 13 0 8 -21 35 -55 73 -6 6 -21 25
-33 41 -121 159 -470 499 -622 606 -19 13 -46 34 -60 47 -13 12 -28 22 -32 22
-3 0 -13 6 -20 13 -12 11 -142 100 -180 122 -9 6 -52 31 -96 57 -247 146 -654
315 -852 353 -8 2 -35 8 -60 15 -25 7 -56 14 -70 16 -14 2 -36 7 -50 10 -37 9
-110 20 -185 29 -27 4 -61 9 -75 12 -30 6 -497 13 -503 7z m-1311 -786 c27
-35 51 -65 54 -68 8 -6 151 -204 165 -228 6 -9 12 -19 15 -22 3 -3 17 -21 30
-40 14 -19 28 -39 32 -45 14 -17 82 -112 98 -135 23 -34 128 -173 148 -195 10
-11 37 -45 61 -75 75 -94 301 -312 406 -390 172 -130 406 -260 600 -334 39
-15 79 -31 90 -35 68 -29 157 -60 190 -67 6 -1 37 -12 70 -24 33 -12 69 -24
80 -26 62 -11 506 -152 520 -165 5 -5 19 -9 32 -9 13 0 23 -4 23 -10 0 -5 7
-10 16 -10 19 0 285 -131 304 -150 3 -3 16 -11 30 -18 33 -17 195 -132 244
-174 22 -18 55 -46 74 -63 73 -62 186 -180 273 -285 46 -55 169 -226 169 -235
0 -2 13 -23 29 -47 74 -110 197 -372 262 -556 29 -82 107 -353 114 -397 2 -11
6 -31 9 -45 4 -14 8 -36 11 -50 3 -14 7 -36 10 -50 3 -14 7 -41 10 -60 2 -19
6 -46 9 -60 3 -14 7 -43 10 -65 3 -22 8 -52 11 -67 3 -15 1 -30 -5 -33 -5 -3
-10 -1 -10 6 0 6 -10 22 -22 33 -13 12 -27 29 -33 38 -13 19 -68 93 -103 137
-15 19 -34 45 -42 57 -37 57 -284 389 -292 392 -4 2 -8 8 -8 13 0 5 -9 19 -19
31 -10 13 -54 66 -97 118 -164 200 -300 334 -455 449 -46 33 -91 67 -99 75
-49 44 -401 226 -495 256 -22 7 -44 16 -50 20 -10 7 -344 119 -375 125 -8 2
-49 13 -90 25 -41 11 -82 23 -90 25 -39 10 -197 57 -210 62 -8 3 -18 7 -22 8
-5 2 -9 3 -10 5 -2 1 -10 3 -18 5 -25 5 -186 73 -232 97 -24 12 -47 23 -53 24
-11 2 -160 87 -204 116 -14 10 -33 21 -41 25 -8 3 -17 9 -20 13 -3 3 -36 28
-73 54 -293 208 -563 535 -749 908 -27 54 -48 99 -46 100 1 2 -5 17 -15 33
-24 43 -133 332 -134 355 -1 3 -10 37 -21 75 -12 39 -31 113 -42 165 -12 52
-25 113 -31 135 -5 22 -11 56 -13 75 -2 19 -6 46 -9 60 -4 14 -9 43 -12 65 -3
22 -8 57 -11 78 -3 20 -3 37 0 37 2 0 26 -28 52 -62z"/>
</g>
</svg>
