<?xml version="1.0" encoding="UTF-8"?>
<svg xmlns="http://www.w3.org/2000/svg" xmlns:xlink="http://www.w3.org/1999/xlink" width="235px" height="25px" viewBox="0 0 235 25" version="1.1">
<g id="surface1">
<path style=" stroke:none;fill-rule:evenodd;fill:rgb(100%,100%,100%);fill-opacity:1;" d="M 75.332031 22.40625 C 75.332031 22.894531 75.078125 23.136719 74.566406 23.136719 L 65.609375 23.136719 C 65.394531 23.136719 65.21875 23.078125 65.082031 22.957031 C 64.945312 22.832031 64.878906 22.660156 64.878906 22.4375 C 64.878906 22.25 64.925781 22.09375 65.015625 21.976562 C 65.109375 21.863281 65.253906 21.765625 65.445312 21.691406 L 66.144531 21.484375 C 66.316406 21.433594 66.453125 21.332031 66.550781 21.183594 C 66.648438 21.035156 66.695312 20.824219 66.695312 20.546875 L 66.695312 11.363281 C 66.695312 11.214844 66.660156 11.089844 66.582031 10.988281 C 66.507812 10.886719 66.367188 10.792969 66.160156 10.710938 L 65.21875 10.40625 C 64.972656 10.292969 64.792969 10.167969 64.683594 10.035156 C 64.574219 9.902344 64.523438 9.742188 64.523438 9.550781 C 64.523438 9.359375 64.589844 9.203125 64.722656 9.082031 L 64.777344 9.039062 C 64.90625 8.945312 65.078125 8.898438 65.285156 8.898438 L 66.707031 8.898438 L 66.699219 8.804688 C 66.667969 8.621094 66.589844 8.441406 66.46875 8.269531 C 66.308594 8.042969 66.121094 7.785156 65.917969 7.5 C 65.710938 7.214844 65.527344 6.871094 65.367188 6.472656 C 65.203125 6.078125 65.121094 5.585938 65.121094 5.003906 C 65.121094 3.617188 65.609375 2.507812 66.582031 1.675781 C 67.554688 0.84375 68.941406 0.425781 70.738281 0.425781 C 71.894531 0.425781 72.855469 0.605469 73.617188 0.96875 C 74.382812 1.328125 74.953125 1.808594 75.332031 2.40625 C 75.710938 3.003906 75.898438 3.660156 75.898438 4.367188 C 75.898438 5.207031 75.675781 5.832031 75.226562 6.25 C 74.777344 6.671875 74.199219 6.878906 73.496094 6.878906 C 72.71875 6.878906 72.089844 6.636719 71.613281 6.148438 C 71.136719 5.660156 70.898438 5.015625 70.898438 4.210938 L 70.898438 2.796875 C 70.898438 2.425781 70.824219 2.152344 70.671875 1.976562 C 70.519531 1.800781 70.289062 1.714844 69.976562 1.714844 C 69.574219 1.714844 69.273438 1.847656 69.066406 2.113281 C 68.859375 2.375 68.757812 2.757812 68.757812 3.257812 C 68.757812 3.765625 68.878906 4.242188 69.121094 4.6875 C 69.367188 5.132812 69.667969 5.546875 70.023438 5.933594 C 70.378906 6.320312 70.738281 6.691406 71.09375 7.046875 C 71.453125 7.402344 71.753906 7.75 71.996094 8.09375 L 72.066406 8.199219 C 72.195312 8.40625 72.285156 8.609375 72.328125 8.816406 L 72.34375 8.898438 L 74.746094 8.898438 C 74.996094 8.898438 75.1875 8.949219 75.324219 9.050781 C 75.457031 9.148438 75.527344 9.304688 75.527344 9.519531 C 75.527344 9.835938 75.382812 10.09375 75.101562 10.296875 C 74.820312 10.496094 74.378906 10.597656 73.773438 10.597656 L 72.621094 10.597656 L 72.621094 20.5 C 72.621094 20.796875 72.667969 21.023438 72.757812 21.183594 C 72.851562 21.34375 73 21.4375 73.203125 21.46875 L 74.601562 21.675781 C 74.847656 21.707031 75.03125 21.785156 75.152344 21.90625 C 75.269531 22.027344 75.332031 22.195312 75.332031 22.40625 Z M 43.375 22.773438 C 42.402344 23.226562 41.265625 23.457031 39.964844 23.457031 C 38.59375 23.457031 37.363281 23.175781 36.273438 22.613281 C 35.1875 22.050781 34.328125 21.238281 33.703125 20.175781 C 33.074219 19.109375 32.761719 17.8125 32.761719 16.289062 C 32.761719 14.816406 33.085938 13.5 33.742188 12.339844 C 34.398438 11.179688 35.308594 10.261719 36.476562 9.589844 C 37.644531 8.917969 39.007812 8.582031 40.566406 8.582031 C 41.898438 8.582031 43.019531 8.769531 43.933594 9.152344 C 44.847656 9.535156 45.546875 10.050781 46.027344 10.703125 C 46.507812 11.351562 46.75 12.082031 46.75 12.886719 C 46.75 13.734375 46.5 14.398438 45.996094 14.882812 C 45.492188 15.363281 44.808594 15.605469 43.941406 15.605469 C 43.054688 15.605469 42.382812 15.359375 41.921875 14.867188 C 41.460938 14.375 41.230469 13.699219 41.230469 12.839844 L 41.230469 11.824219 C 41.230469 11.304688 41.136719 10.910156 40.941406 10.644531 C 40.746094 10.382812 40.46875 10.25 40.113281 10.25 C 39.753906 10.25 39.433594 10.390625 39.148438 10.671875 C 38.859375 10.949219 38.636719 11.371094 38.480469 11.933594 C 38.324219 12.496094 38.246094 13.1875 38.246094 14.015625 C 38.246094 15.203125 38.425781 16.199219 38.789062 17.003906 C 39.152344 17.808594 39.648438 18.414062 40.273438 18.816406 C 40.902344 19.21875 41.617188 19.417969 42.417969 19.417969 C 43.21875 19.417969 43.886719 19.304688 44.429688 19.078125 C 44.96875 18.851562 45.386719 18.464844 45.679688 17.925781 C 45.839844 17.777344 45.96875 17.679688 46.058594 17.640625 C 46.152344 17.597656 46.242188 17.574219 46.328125 17.574219 C 46.4375 17.585938 46.527344 17.636719 46.597656 17.726562 C 46.667969 17.816406 46.695312 17.957031 46.683594 18.148438 C 46.597656 19.1875 46.269531 20.101562 45.695312 20.898438 C 45.121094 21.691406 44.347656 22.316406 43.375 22.773438 Z M 59.871094 22.453125 C 58.65625 23.101562 57.238281 23.425781 55.628906 23.425781 C 54.058594 23.425781 52.683594 23.109375 51.496094 22.480469 C 50.3125 21.847656 49.390625 20.976562 48.730469 19.863281 C 48.070312 18.75 47.742188 17.464844 47.742188 16.003906 C 47.742188 14.605469 48.085938 13.34375 48.777344 12.226562 C 49.472656 11.109375 50.429688 10.222656 51.652344 9.566406 C 52.875 8.910156 54.28125 8.582031 55.871094 8.582031 C 57.449219 8.582031 58.832031 8.898438 60.011719 9.535156 C 61.1875 10.167969 62.109375 11.050781 62.769531 12.171875 C 63.429688 13.296875 63.757812 14.59375 63.757812 16.066406 C 63.757812 17.464844 63.414062 18.71875 62.726562 19.824219 C 62.042969 20.933594 61.089844 21.808594 59.871094 22.453125 Z M 56.863281 21.769531 C 56.527344 21.835938 56.199219 21.691406 55.878906 21.34375 C 55.558594 20.992188 55.257812 20.40625 54.96875 19.578125 C 54.683594 18.75 54.410156 17.664062 54.152344 16.320312 C 53.902344 14.972656 53.761719 13.867188 53.730469 13 C 53.695312 12.128906 53.761719 11.472656 53.925781 11.027344 C 54.085938 10.582031 54.335938 10.324219 54.671875 10.25 C 55.003906 10.183594 55.332031 10.328125 55.652344 10.679688 C 55.972656 11.027344 56.277344 11.617188 56.570312 12.441406 C 56.863281 13.269531 57.136719 14.355469 57.398438 15.699219 C 57.65625 17.046875 57.800781 18.15625 57.828125 19.03125 C 57.855469 19.902344 57.785156 20.5625 57.617188 21.007812 C 57.449219 21.453125 57.195312 21.707031 56.863281 21.769531 Z M 85.894531 23.136719 C 86.40625 23.136719 86.660156 22.894531 86.660156 22.40625 C 86.660156 22.195312 86.597656 22.027344 86.480469 21.90625 C 86.363281 21.785156 86.175781 21.707031 85.929688 21.675781 L 84.53125 21.46875 C 84.328125 21.4375 84.179688 21.34375 84.085938 21.183594 C 83.996094 21.023438 83.949219 20.796875 83.949219 20.5 L 83.949219 10.597656 L 85.101562 10.597656 C 85.707031 10.597656 86.152344 10.496094 86.433594 10.296875 C 86.714844 10.09375 86.855469 9.835938 86.855469 9.519531 C 86.855469 9.304688 86.785156 9.148438 86.652344 9.050781 C 86.515625 8.949219 86.324219 8.898438 86.074219 8.898438 L 83.671875 8.898438 L 83.65625 8.816406 C 83.613281 8.609375 83.523438 8.40625 83.394531 8.199219 L 83.324219 8.09375 C 83.082031 7.75 82.78125 7.402344 82.421875 7.046875 C 82.066406 6.691406 81.707031 6.320312 81.351562 5.933594 C 80.996094 5.546875 80.695312 5.132812 80.449219 4.6875 C 80.207031 4.242188 80.085938 3.765625 80.085938 3.257812 C 80.085938 2.757812 80.1875 2.375 80.394531 2.113281 C 80.601562 1.847656 80.902344 1.714844 81.304688 1.714844 C 81.617188 1.714844 81.847656 1.800781 82 1.976562 C 82.152344 2.152344 82.226562 2.425781 82.226562 2.796875 L 82.226562 4.210938 C 82.226562 5.015625 82.464844 5.660156 82.941406 6.148438 C 83.417969 6.636719 84.046875 6.878906 84.824219 6.878906 C 85.527344 6.878906 86.105469 6.671875 86.554688 6.25 C 87.003906 5.832031 87.226562 5.207031 87.226562 4.367188 C 87.226562 3.660156 87.039062 3.003906 86.660156 2.40625 C 86.28125 1.808594 85.710938 1.328125 84.945312 0.96875 C 84.183594 0.605469 83.222656 0.425781 82.066406 0.425781 C 80.269531 0.425781 78.886719 0.84375 77.910156 1.675781 C 76.9375 2.507812 76.449219 3.617188 76.449219 5.003906 C 76.449219 5.585938 76.53125 6.078125 76.695312 6.472656 C 76.855469 6.871094 77.039062 7.214844 77.246094 7.5 C 77.453125 7.785156 77.636719 8.042969 77.796875 8.269531 C 77.917969 8.441406 77.996094 8.621094 78.027344 8.804688 L 78.035156 8.898438 L 76.613281 8.898438 C 76.40625 8.898438 76.234375 8.945312 76.105469 9.039062 L 76.054688 9.082031 C 75.917969 9.203125 75.851562 9.359375 75.851562 9.550781 C 75.851562 9.742188 75.902344 9.902344 76.011719 10.035156 C 76.121094 10.167969 76.300781 10.292969 76.546875 10.40625 L 77.488281 10.710938 C 77.695312 10.792969 77.835938 10.886719 77.910156 10.988281 C 77.988281 11.089844 78.023438 11.214844 78.023438 11.363281 L 78.023438 20.546875 C 78.023438 20.824219 77.976562 21.035156 77.878906 21.183594 C 77.78125 21.332031 77.644531 21.433594 77.472656 21.484375 L 76.773438 21.691406 C 76.582031 21.765625 76.4375 21.863281 76.34375 21.976562 C 76.253906 22.09375 76.207031 22.25 76.207031 22.4375 C 76.207031 22.660156 76.273438 22.832031 76.410156 22.957031 C 76.546875 23.078125 76.722656 23.136719 76.9375 23.136719 Z M 98.605469 22.675781 C 97.554688 23.195312 96.34375 23.457031 94.96875 23.457031 C 93.453125 23.457031 92.121094 23.152344 90.976562 22.542969 C 89.828125 21.933594 88.933594 21.082031 88.289062 19.984375 C 87.644531 18.886719 87.324219 17.617188 87.324219 16.175781 C 87.324219 14.660156 87.636719 13.335938 88.257812 12.195312 C 88.878906 11.058594 89.78125 10.167969 90.960938 9.535156 C 92.140625 8.898438 93.554688 8.582031 95.210938 8.582031 C 96.617188 8.582031 97.832031 8.847656 98.847656 9.382812 C 99.863281 9.917969 100.644531 10.644531 101.191406 11.558594 C 101.738281 12.476562 102.011719 13.496094 102.011719 14.621094 C 102.011719 15.105469 101.875 15.492188 101.605469 15.773438 L 101.542969 15.835938 C 101.273438 16.074219 100.90625 16.191406 100.4375 16.191406 L 93.019531 16.191406 L 93.035156 16.265625 C 93.230469 17.140625 93.566406 17.835938 94.042969 18.363281 C 94.855469 19.257812 95.9375 19.707031 97.289062 19.707031 C 98.15625 19.707031 98.921875 19.515625 99.585938 19.132812 C 100.25 18.75 100.699219 18.222656 100.925781 17.542969 C 101.054688 17.40625 101.171875 17.3125 101.273438 17.265625 C 101.375 17.21875 101.464844 17.195312 101.542969 17.195312 C 101.648438 17.195312 101.742188 17.238281 101.816406 17.320312 C 101.894531 17.40625 101.929688 17.550781 101.929688 17.75 C 101.929688 18.789062 101.636719 19.738281 101.054688 20.601562 C 100.46875 21.46875 99.652344 22.15625 98.605469 22.675781 Z M 92.847656 14.917969 C 92.832031 14.675781 92.828125 14.421875 92.828125 14.160156 C 92.828125 13.164062 92.902344 12.378906 93.054688 11.804688 C 93.203125 11.234375 93.398438 10.828125 93.636719 10.589844 C 93.875 10.351562 94.140625 10.234375 94.433594 10.234375 C 94.8125 10.234375 95.164062 10.546875 95.496094 11.171875 C 95.824219 11.796875 95.992188 12.835938 95.992188 14.285156 C 95.992188 14.730469 95.785156 14.953125 95.375 14.953125 L 92.851562 14.953125 Z M 114.121094 22.675781 C 113.070312 23.195312 111.859375 23.457031 110.484375 23.457031 C 108.96875 23.457031 107.636719 23.152344 106.492188 22.542969 C 105.34375 21.933594 104.449219 21.082031 103.804688 19.984375 C 103.160156 18.886719 102.839844 17.617188 102.839844 16.175781 C 102.839844 14.660156 103.152344 13.335938 103.773438 12.195312 C 104.394531 11.058594 105.296875 10.167969 106.476562 9.535156 C 107.65625 8.898438 109.070312 8.582031 110.726562 8.582031 C 112.132812 8.582031 113.34375 8.847656 114.363281 9.382812 C 115.378906 9.917969 116.160156 10.644531 116.707031 11.558594 C 117.253906 12.476562 117.527344 13.496094 117.527344 14.621094 C 117.527344 15.105469 117.390625 15.492188 117.121094 15.773438 L 117.058594 15.835938 C 116.792969 16.074219 116.421875 16.191406 115.953125 16.191406 L 108.535156 16.191406 L 108.550781 16.265625 C 108.746094 17.140625 109.082031 17.835938 109.558594 18.363281 C 110.371094 19.257812 111.453125 19.707031 112.804688 19.707031 C 113.671875 19.707031 114.4375 19.515625 115.101562 19.132812 C 115.765625 18.75 116.214844 18.222656 116.441406 17.542969 C 116.570312 17.40625 116.6875 17.3125 116.789062 17.265625 C 116.890625 17.21875 116.980469 17.195312 117.058594 17.195312 C 117.164062 17.195312 117.257812 17.238281 117.332031 17.320312 C 117.410156 17.40625 117.445312 17.550781 117.445312 17.75 C 117.445312 18.789062 117.15625 19.738281 116.570312 20.601562 C 115.984375 21.46875 115.167969 22.15625 114.121094 22.675781 Z M 108.363281 14.917969 C 108.347656 14.675781 108.34375 14.421875 108.34375 14.160156 C 108.34375 13.164062 108.417969 12.378906 108.570312 11.804688 C 108.71875 11.234375 108.914062 10.828125 109.152344 10.589844 C 109.390625 10.351562 109.65625 10.234375 109.949219 10.234375 C 110.328125 10.234375 110.679688 10.546875 111.011719 11.171875 C 111.339844 11.796875 111.507812 12.835938 111.507812 14.285156 C 111.507812 14.730469 111.300781 14.953125 110.890625 14.953125 L 108.367188 14.953125 Z M 127.957031 22.941406 C 127.820312 23.070312 127.621094 23.136719 127.363281 23.136719 L 119.246094 23.136719 C 119.007812 23.136719 118.824219 23.074219 118.6875 22.949219 C 118.550781 22.820312 118.484375 22.644531 118.484375 22.421875 C 118.484375 22.253906 118.527344 22.113281 118.605469 22 C 118.6875 21.890625 118.796875 21.789062 118.941406 21.691406 L 119.3125 21.550781 C 119.453125 21.484375 119.550781 21.382812 119.605469 21.246094 C 119.660156 21.109375 119.6875 20.882812 119.6875 20.5625 L 119.6875 12.488281 C 119.6875 12.234375 119.65625 12.054688 119.597656 11.941406 C 119.539062 11.832031 119.4375 11.742188 119.296875 11.679688 L 118.875 11.632812 C 118.722656 11.546875 118.613281 11.457031 118.542969 11.363281 C 118.472656 11.265625 118.4375 11.144531 118.4375 10.996094 C 118.4375 10.828125 118.492188 10.675781 118.597656 10.542969 C 118.707031 10.410156 118.890625 10.296875 119.152344 10.203125 L 123.757812 8.914062 C 124.03125 8.808594 124.257812 8.734375 124.441406 8.691406 C 124.625 8.648438 124.78125 8.628906 124.914062 8.628906 C 125.09375 8.628906 125.234375 8.691406 125.324219 8.820312 L 125.355469 8.863281 C 125.429688 8.996094 125.484375 9.210938 125.511719 9.5 L 125.636719 11.972656 L 125.664062 11.878906 C 125.71875 11.707031 125.78125 11.542969 125.84375 11.386719 C 126.238281 10.4375 126.761719 9.730469 127.410156 9.269531 C 128.0625 8.8125 128.769531 8.582031 129.539062 8.582031 C 130.46875 8.582031 131.183594 8.882812 131.679688 9.484375 C 132.175781 10.089844 132.425781 11.007812 132.425781 12.234375 C 132.425781 13.453125 132.167969 14.347656 131.648438 14.921875 C 131.128906 15.492188 130.457031 15.78125 129.636719 15.78125 C 128.832031 15.78125 128.242188 15.582031 127.859375 15.191406 C 127.472656 14.800781 127.269531 14.242188 127.25 13.523438 L 127.234375 12.886719 C 127.222656 12.644531 127.175781 12.453125 127.085938 12.316406 C 127 12.175781 126.859375 12.109375 126.664062 12.109375 C 126.46875 12.109375 126.300781 12.207031 126.152344 12.402344 C 126.007812 12.597656 125.894531 12.898438 125.820312 13.300781 C 125.746094 13.703125 125.707031 14.21875 125.707031 14.84375 L 125.707031 20.4375 C 125.707031 20.734375 125.757812 20.96875 125.851562 21.144531 C 125.949219 21.320312 126.101562 21.425781 126.308594 21.46875 L 127.523438 21.707031 C 127.753906 21.738281 127.914062 21.820312 128.011719 21.953125 C 128.109375 22.085938 128.15625 22.242188 128.15625 22.421875 C 128.15625 22.636719 128.089844 22.808594 127.957031 22.941406 Z M 140.929688 23.425781 C 142.542969 23.425781 143.957031 23.101562 145.175781 22.453125 C 146.390625 21.808594 147.34375 20.933594 148.03125 19.824219 C 148.71875 18.71875 149.0625 17.464844 149.0625 16.066406 C 149.0625 14.59375 148.730469 13.296875 148.070312 12.171875 C 147.410156 11.050781 146.492188 10.167969 145.3125 9.535156 C 144.132812 8.898438 142.753906 8.582031 141.175781 8.582031 C 139.585938 8.582031 138.175781 8.910156 136.953125 9.566406 C 135.730469 10.222656 134.773438 11.109375 134.082031 12.226562 C 133.390625 13.34375 133.042969 14.605469 133.042969 16.003906 C 133.042969 17.464844 133.375 18.75 134.035156 19.863281 C 134.691406 20.976562 135.617188 21.847656 136.800781 22.480469 C 137.984375 23.109375 139.363281 23.425781 140.929688 23.425781 Z M 141.183594 21.34375 C 141.5 21.691406 141.828125 21.835938 142.164062 21.769531 C 142.5 21.707031 142.75 21.453125 142.917969 21.007812 C 143.085938 20.5625 143.15625 19.902344 143.128906 19.03125 C 143.101562 18.15625 142.960938 17.046875 142.699219 15.699219 C 142.441406 14.355469 142.164062 13.269531 141.871094 12.441406 C 141.578125 11.617188 141.273438 11.027344 140.957031 10.679688 C 140.636719 10.328125 140.308594 10.183594 139.972656 10.25 C 139.636719 10.324219 139.390625 10.582031 139.226562 11.027344 C 139.0625 11.472656 139 12.128906 139.03125 13 C 139.0625 13.867188 139.203125 14.972656 139.453125 16.320312 C 139.714844 17.664062 139.984375 18.75 140.273438 19.578125 C 140.558594 20.40625 140.863281 20.992188 141.183594 21.34375 Z M 161.933594 23.457031 C 162.839844 23.457031 163.585938 23.292969 164.171875 22.972656 C 164.757812 22.648438 165.191406 22.265625 165.476562 21.820312 C 165.765625 21.375 165.90625 20.964844 165.90625 20.59375 C 165.90625 20.4375 165.875 20.304688 165.800781 20.199219 C 165.734375 20.09375 165.636719 20.039062 165.519531 20.039062 C 165.464844 20.039062 165.417969 20.050781 165.371094 20.070312 C 165.328125 20.09375 165.292969 20.125 165.257812 20.167969 C 165.203125 20.355469 165.121094 20.488281 165.007812 20.5625 C 164.894531 20.636719 164.773438 20.675781 164.640625 20.675781 C 164.457031 20.675781 164.320312 20.613281 164.226562 20.492188 C 164.136719 20.371094 164.089844 20.207031 164.089844 20.007812 L 164.089844 12.984375 C 164.089844 11.582031 163.601562 10.5 162.621094 9.730469 C 161.640625 8.964844 160.109375 8.582031 158.019531 8.582031 C 156.398438 8.582031 155.042969 8.777344 153.953125 9.167969 C 152.867188 9.558594 152.050781 10.0625 151.503906 10.671875 C 150.957031 11.28125 150.683594 11.902344 150.683594 12.539062 C 150.683594 13.214844 150.886719 13.730469 151.292969 14.085938 C 151.699219 14.441406 152.285156 14.621094 153.054688 14.621094 C 153.996094 14.621094 154.738281 14.375 155.277344 13.878906 C 155.820312 13.386719 156.089844 12.75 156.089844 11.964844 L 156.089844 10.757812 C 156.089844 10.460938 156.183594 10.230469 156.375 10.066406 C 156.5625 9.902344 156.796875 9.820312 157.078125 9.820312 C 157.382812 9.820312 157.625 9.929688 157.800781 10.144531 C 157.980469 10.363281 158.070312 10.65625 158.070312 11.027344 L 158.070312 15.660156 L 157.984375 15.640625 C 157.722656 15.59375 157.417969 15.566406 157.074219 15.558594 L 156.898438 15.558594 C 154.574219 15.558594 152.839844 15.9375 151.699219 16.703125 C 150.558594 17.464844 149.988281 18.527344 149.988281 19.894531 C 149.988281 20.933594 150.378906 21.789062 151.164062 22.453125 C 151.949219 23.121094 152.988281 23.457031 154.289062 23.457031 C 155.261719 23.457031 156.171875 23.261719 157.015625 22.875 C 157.648438 22.585938 158.160156 22.203125 158.558594 21.734375 L 158.578125 21.707031 L 158.601562 21.777344 C 158.730469 22.121094 158.957031 22.429688 159.289062 22.699219 L 159.390625 22.78125 C 159.992188 23.230469 160.839844 23.457031 161.933594 23.457031 Z M 156.339844 20.460938 C 156.605469 20.804688 156.957031 20.976562 157.386719 20.976562 L 157.480469 20.972656 C 157.664062 20.960938 157.84375 20.910156 158.015625 20.824219 L 158.070312 20.796875 L 158.070312 16.71875 L 157.988281 16.695312 C 157.804688 16.644531 157.585938 16.621094 157.339844 16.621094 C 156.917969 16.621094 156.578125 16.8125 156.324219 17.195312 C 156.070312 17.574219 155.945312 18.136719 155.945312 18.878906 C 155.945312 19.589844 156.074219 20.117188 156.339844 20.460938 Z M 173.375 23.503906 C 175.300781 23.503906 176.777344 23.074219 177.804688 22.214844 C 178.832031 21.359375 179.347656 20.1875 179.347656 18.703125 C 179.347656 17.804688 179.171875 17.015625 178.828125 16.335938 C 178.480469 15.65625 177.875 15.054688 177.007812 14.53125 C 176.144531 14.007812 174.925781 13.511719 173.355469 13.046875 C 172.773438 12.867188 172.320312 12.683594 172.003906 12.496094 C 171.683594 12.3125 171.464844 12.113281 171.34375 11.902344 C 171.226562 11.691406 171.167969 11.460938 171.167969 11.21875 C 171.167969 10.859375 171.300781 10.566406 171.570312 10.34375 C 171.84375 10.121094 172.242188 10.011719 172.773438 10.011719 C 173.507812 10.011719 174.203125 10.25 174.859375 10.726562 C 175.511719 11.203125 176.234375 12.019531 177.027344 13.171875 C 177.230469 13.417969 177.4375 13.59375 177.640625 13.707031 C 177.847656 13.816406 178.042969 13.851562 178.226562 13.808594 C 178.453125 13.746094 178.59375 13.601562 178.648438 13.371094 C 178.703125 13.144531 178.691406 12.816406 178.617188 12.394531 L 178.195312 9.46875 C 178.152344 9.164062 178.070312 8.945312 177.949219 8.820312 C 177.832031 8.691406 177.675781 8.628906 177.480469 8.628906 C 177.304688 8.628906 177.089844 8.6875 176.832031 8.800781 C 176.570312 8.917969 176.3125 9.039062 176.058594 9.160156 C 175.804688 9.28125 175.613281 9.34375 175.484375 9.34375 C 175.363281 9.34375 175.1875 9.28125 174.957031 9.152344 C 174.722656 9.023438 174.394531 8.898438 173.976562 8.769531 C 173.550781 8.644531 173.003906 8.582031 172.335938 8.582031 C 171.21875 8.582031 170.214844 8.777344 169.324219 9.167969 C 168.433594 9.558594 167.726562 10.117188 167.214844 10.84375 C 166.699219 11.570312 166.445312 12.4375 166.445312 13.445312 C 166.445312 14.332031 166.636719 15.113281 167.019531 15.78125 C 167.402344 16.445312 167.992188 17.019531 168.78125 17.496094 C 169.570312 17.972656 170.566406 18.359375 171.765625 18.65625 C 172.546875 18.859375 173.144531 19.0625 173.558594 19.269531 C 173.976562 19.476562 174.261719 19.699219 174.421875 19.945312 C 174.578125 20.1875 174.65625 20.457031 174.65625 20.753906 C 174.65625 21.144531 174.519531 21.46875 174.25 21.722656 C 173.980469 21.976562 173.570312 22.105469 173.015625 22.105469 C 172.496094 22.105469 172.003906 21.996094 171.53125 21.78125 C 171.0625 21.5625 170.578125 21.1875 170.078125 20.660156 C 169.582031 20.128906 169.023438 19.402344 168.40625 18.480469 C 168.222656 18.238281 168.015625 18.070312 167.78125 17.972656 C 167.550781 17.878906 167.316406 17.882812 167.078125 17.988281 C 166.847656 18.074219 166.703125 18.253906 166.640625 18.527344 C 166.574219 18.804688 166.589844 19.144531 166.6875 19.546875 L 167.191406 22.710938 C 167.265625 23.027344 167.375 23.238281 167.515625 23.34375 C 167.65625 23.449219 167.808594 23.503906 167.96875 23.503906 C 168.152344 23.503906 168.378906 23.445312 168.640625 23.328125 L 169.4375 22.980469 C 169.703125 22.863281 169.917969 22.804688 170.078125 22.804688 C 170.242188 22.804688 170.453125 22.863281 170.71875 22.980469 C 170.984375 23.097656 171.332031 23.210938 171.757812 23.328125 C 172.1875 23.445312 172.726562 23.503906 173.375 23.503906 Z M 188.761719 22.90625 C 188.046875 23.273438 187.203125 23.457031 186.226562 23.457031 C 184.582031 23.457031 183.347656 23.070312 182.519531 22.296875 C 181.691406 21.523438 181.277344 20.304688 181.277344 18.640625 L 181.277344 11.457031 C 181.277344 11.234375 181.253906 11.066406 181.210938 10.949219 C 181.167969 10.832031 181.0625 10.734375 180.886719 10.664062 L 180.125 10.421875 C 179.941406 10.339844 179.824219 10.234375 179.769531 10.113281 C 179.714844 9.992188 179.6875 9.839844 179.6875 9.660156 C 179.6875 9.4375 179.769531 9.253906 179.929688 9.113281 C 180.09375 8.96875 180.292969 8.898438 180.53125 8.898438 L 181.328125 8.898438 C 181.425781 8.898438 181.527344 8.859375 181.636719 8.785156 C 181.742188 8.710938 181.890625 8.5625 182.074219 8.339844 L 185.074219 5.910156 C 185.292969 5.65625 185.507812 5.460938 185.726562 5.328125 C 185.941406 5.199219 186.15625 5.132812 186.375 5.132812 C 186.621094 5.132812 186.816406 5.207031 186.957031 5.355469 L 187.003906 5.40625 C 187.113281 5.554688 187.167969 5.769531 187.167969 6.054688 L 187.167969 8.898438 L 190.5625 8.898438 C 190.800781 8.898438 190.984375 8.949219 191.113281 9.050781 C 191.242188 9.148438 191.308594 9.304688 191.308594 9.519531 C 191.308594 9.816406 191.171875 10.070312 190.902344 10.28125 L 190.839844 10.324219 C 190.570312 10.507812 190.15625 10.597656 189.601562 10.597656 L 187.167969 10.597656 L 187.167969 17.847656 C 187.167969 18.640625 187.308594 19.230469 187.582031 19.609375 C 187.859375 19.992188 188.261719 20.183594 188.792969 20.183594 C 189.019531 20.183594 189.230469 20.132812 189.425781 20.039062 C 189.617188 19.945312 189.796875 19.820312 189.953125 19.664062 C 190.109375 19.511719 190.257812 19.339844 190.398438 19.148438 C 190.539062 18.957031 190.675781 18.769531 190.804688 18.578125 C 190.914062 18.535156 191.007812 18.554688 191.089844 18.632812 C 191.167969 18.710938 191.203125 18.875 191.195312 19.117188 C 191.117188 19.976562 190.871094 20.730469 190.457031 21.382812 C 190.039062 22.035156 189.472656 22.542969 188.761719 22.90625 Z M 199.390625 23.457031 C 200.765625 23.457031 201.976562 23.195312 203.023438 22.675781 C 204.074219 22.15625 204.890625 21.46875 205.476562 20.601562 C 206.058594 19.738281 206.351562 18.789062 206.351562 17.75 C 206.351562 17.550781 206.3125 17.40625 206.238281 17.320312 C 206.164062 17.238281 206.070312 17.195312 205.960938 17.195312 C 205.886719 17.195312 205.796875 17.21875 205.695312 17.265625 C 205.59375 17.3125 205.476562 17.40625 205.347656 17.542969 C 205.121094 18.222656 204.671875 18.75 204.007812 19.132812 C 203.339844 19.515625 202.574219 19.707031 201.710938 19.707031 C 200.359375 19.707031 199.277344 19.257812 198.464844 18.363281 C 197.988281 17.835938 197.652344 17.140625 197.457031 16.265625 L 197.441406 16.191406 L 204.859375 16.191406 C 205.328125 16.191406 205.695312 16.074219 205.964844 15.835938 L 206.027344 15.773438 C 206.296875 15.492188 206.433594 15.105469 206.433594 14.621094 C 206.433594 13.496094 206.160156 12.476562 205.613281 11.558594 C 205.066406 10.644531 204.285156 9.917969 203.269531 9.382812 C 202.25 8.847656 201.039062 8.582031 199.632812 8.582031 C 197.976562 8.582031 196.5625 8.898438 195.382812 9.535156 C 194.203125 10.167969 193.300781 11.058594 192.679688 12.195312 C 192.058594 13.335938 191.746094 14.660156 191.746094 16.175781 C 191.746094 17.617188 192.066406 18.886719 192.710938 19.984375 C 193.355469 21.082031 194.25 21.933594 195.398438 22.542969 C 196.542969 23.152344 197.875 23.457031 199.390625 23.457031 Z M 197.246094 14.160156 C 197.246094 14.421875 197.253906 14.675781 197.269531 14.917969 L 197.273438 14.953125 L 199.796875 14.953125 C 200.207031 14.953125 200.414062 14.730469 200.414062 14.285156 C 200.414062 12.835938 200.246094 11.796875 199.917969 11.171875 C 199.585938 10.546875 199.234375 10.234375 198.855469 10.234375 C 198.5625 10.234375 198.296875 10.351562 198.058594 10.589844 C 197.820312 10.828125 197.625 11.234375 197.476562 11.804688 C 197.324219 12.378906 197.246094 13.164062 197.246094 14.160156 Z M 216.269531 23.136719 C 216.527344 23.136719 216.726562 23.070312 216.859375 22.941406 C 216.996094 22.808594 217.0625 22.636719 217.0625 22.421875 C 217.0625 22.242188 217.015625 22.085938 216.917969 21.953125 C 216.820312 21.820312 216.65625 21.738281 216.429688 21.707031 L 215.214844 21.46875 C 215.007812 21.425781 214.855469 21.320312 214.757812 21.144531 C 214.660156 20.96875 214.613281 20.734375 214.613281 20.4375 L 214.613281 14.84375 C 214.613281 14.21875 214.652344 13.703125 214.726562 13.300781 C 214.804688 12.898438 214.914062 12.597656 215.058594 12.402344 C 215.207031 12.207031 215.375 12.109375 215.570312 12.109375 C 215.765625 12.109375 215.90625 12.175781 215.992188 12.316406 C 216.078125 12.453125 216.128906 12.644531 216.140625 12.886719 L 216.15625 13.523438 C 216.175781 14.242188 216.378906 14.800781 216.761719 15.191406 C 217.148438 15.582031 217.742188 15.78125 218.542969 15.78125 C 219.363281 15.78125 220.035156 15.492188 220.554688 14.921875 C 221.074219 14.347656 221.332031 13.453125 221.332031 12.234375 C 221.332031 11.007812 221.082031 10.089844 220.585938 9.484375 C 220.089844 8.882812 219.375 8.582031 218.445312 8.582031 C 217.675781 8.582031 216.964844 8.8125 216.316406 9.269531 C 215.667969 9.730469 215.144531 10.4375 214.75 11.386719 C 214.683594 11.542969 214.625 11.707031 214.570312 11.878906 L 214.542969 11.972656 L 214.417969 9.5 C 214.390625 9.210938 214.335938 8.996094 214.261719 8.863281 L 214.230469 8.820312 C 214.140625 8.691406 214.003906 8.628906 213.816406 8.628906 C 213.6875 8.628906 213.53125 8.648438 213.347656 8.691406 C 213.164062 8.734375 212.9375 8.808594 212.667969 8.914062 L 208.058594 10.203125 C 207.796875 10.296875 207.613281 10.410156 207.503906 10.542969 C 207.394531 10.675781 207.34375 10.828125 207.34375 10.996094 C 207.34375 11.144531 207.378906 11.265625 207.449219 11.363281 C 207.519531 11.457031 207.628906 11.546875 207.78125 11.632812 L 208.203125 11.679688 C 208.34375 11.742188 208.441406 11.832031 208.503906 11.941406 C 208.5625 12.054688 208.59375 12.234375 208.59375 12.488281 L 208.59375 20.5625 C 208.59375 20.882812 208.566406 21.109375 208.511719 21.246094 C 208.457031 21.382812 208.359375 21.484375 208.21875 21.550781 L 207.84375 21.691406 C 207.707031 21.789062 207.59375 21.890625 207.511719 22 C 207.429688 22.113281 207.390625 22.253906 207.390625 22.421875 C 207.390625 22.644531 207.457031 22.820312 207.59375 22.949219 C 207.730469 23.074219 207.917969 23.136719 208.152344 23.136719 Z M 233.359375 22.214844 C 232.332031 23.074219 230.855469 23.503906 228.929688 23.503906 C 228.277344 23.503906 227.738281 23.445312 227.3125 23.328125 C 226.886719 23.210938 226.539062 23.097656 226.273438 22.980469 C 226.007812 22.863281 225.796875 22.804688 225.632812 22.804688 C 225.46875 22.804688 225.257812 22.863281 224.992188 22.980469 L 224.195312 23.328125 C 223.933594 23.445312 223.707031 23.503906 223.523438 23.503906 C 223.359375 23.503906 223.210938 23.449219 223.070312 23.34375 C 222.929688 23.238281 222.820312 23.027344 222.746094 22.710938 L 222.242188 19.546875 C 222.144531 19.144531 222.128906 18.804688 222.191406 18.527344 C 222.257812 18.253906 222.402344 18.074219 222.628906 17.988281 C 222.867188 17.882812 223.105469 17.878906 223.335938 17.972656 C 223.570312 18.070312 223.777344 18.238281 223.960938 18.480469 C 224.578125 19.402344 225.136719 20.128906 225.632812 20.660156 C 226.128906 21.1875 226.613281 21.5625 227.085938 21.78125 C 227.558594 21.996094 228.050781 22.105469 228.570312 22.105469 C 229.121094 22.105469 229.535156 21.976562 229.804688 21.722656 C 230.074219 21.46875 230.210938 21.144531 230.210938 20.753906 C 230.210938 20.457031 230.132812 20.1875 229.972656 19.945312 C 229.816406 19.699219 229.53125 19.476562 229.113281 19.269531 C 228.699219 19.0625 228.101562 18.859375 227.320312 18.65625 C 226.121094 18.359375 225.125 17.972656 224.335938 17.496094 C 223.542969 17.019531 222.957031 16.445312 222.574219 15.78125 C 222.191406 15.113281 221.996094 14.332031 221.996094 13.445312 C 221.996094 12.4375 222.253906 11.570312 222.769531 10.84375 C 223.28125 10.117188 223.984375 9.558594 224.878906 9.167969 C 225.769531 8.777344 226.773438 8.582031 227.890625 8.582031 C 228.558594 8.582031 229.105469 8.644531 229.527344 8.769531 C 229.949219 8.898438 230.277344 9.023438 230.511719 9.152344 C 230.742188 9.28125 230.917969 9.34375 231.039062 9.34375 C 231.167969 9.34375 231.359375 9.28125 231.613281 9.160156 C 231.867188 9.039062 232.125 8.917969 232.382812 8.800781 C 232.644531 8.6875 232.859375 8.628906 233.035156 8.628906 C 233.230469 8.628906 233.386719 8.691406 233.503906 8.820312 C 233.625 8.945312 233.703125 9.164062 233.75 9.46875 L 234.167969 12.394531 C 234.246094 12.816406 234.257812 13.144531 234.203125 13.371094 C 234.148438 13.601562 234.007812 13.746094 233.78125 13.808594 C 233.597656 13.851562 233.402344 13.816406 233.195312 13.707031 C 232.992188 13.59375 232.785156 13.417969 232.578125 13.171875 C 231.789062 12.019531 231.066406 11.203125 230.414062 10.726562 C 229.757812 10.25 229.0625 10.011719 228.328125 10.011719 C 227.796875 10.011719 227.394531 10.121094 227.125 10.34375 C 226.855469 10.566406 226.71875 10.859375 226.71875 11.21875 C 226.71875 11.460938 226.78125 11.691406 226.898438 11.902344 C 227.019531 12.113281 227.238281 12.3125 227.558594 12.496094 C 227.875 12.683594 228.328125 12.867188 228.910156 13.046875 C 230.480469 13.511719 231.699219 14.007812 232.5625 14.53125 C 233.429688 15.054688 234.035156 15.65625 234.378906 16.335938 C 234.726562 17.015625 234.902344 17.804688 234.902344 18.703125 C 234.902344 20.1875 234.386719 21.359375 233.359375 22.214844 Z M 233.359375 22.214844 "/>
<path style=" stroke:none;fill-rule:evenodd;fill:rgb(5.490196%,52.941176%,51.764706%);fill-opacity:1;" d="M 14.328125 4.277344 C 10.828125 0.898438 5.640625 0.414062 2.765625 3.195312 C -0.113281 5.972656 0.390625 10.984375 3.882812 14.359375 C 4.816406 15.261719 5.890625 15.949219 7.023438 16.441406 C 7.394531 14.355469 8.460938 12.347656 10.082031 10.703125 C 9.542969 10.515625 8.996094 10.359375 8.421875 10.210938 C 5.023438 9.308594 3.335938 6.574219 2.941406 3.367188 C 3.269531 3.746094 3.566406 4.140625 3.863281 4.539062 C 4.4375 5.304688 5.007812 6.070312 5.78125 6.6875 C 6.988281 7.644531 8.308594 8.015625 9.757812 8.417969 C 9.8125 8.433594 9.867188 8.449219 9.925781 8.464844 C 10.609375 8.65625 11.207031 8.941406 11.753906 9.273438 C 13.191406 8.257812 14.8125 7.585938 16.484375 7.304688 C 15.972656 6.210938 15.261719 5.175781 14.328125 4.277344 Z M 8.410156 17.242188 C 8.632812 15.152344 9.679688 13.109375 11.363281 11.488281 C 14.863281 8.109375 20.046875 7.625 22.925781 10.40625 C 25.804688 13.183594 25.300781 18.195312 21.804688 21.570312 C 20.125 23.195312 18.007812 24.207031 15.84375 24.421875 C 15.554688 24.449219 15.269531 24.464844 14.988281 24.464844 C 13.128906 24.464844 11.464844 23.835938 10.242188 22.652344 C 8.832031 21.292969 8.179688 19.371094 8.410156 17.242188 Z M 13.527344 18.957031 C 14.675781 18.113281 15.917969 17.777344 17.269531 17.421875 C 20.664062 16.523438 22.351562 13.785156 22.746094 10.578125 C 22.421875 10.957031 22.128906 11.351562 21.835938 11.742188 C 21.257812 12.515625 20.683594 13.28125 19.90625 13.898438 C 18.699219 14.859375 17.371094 15.230469 15.917969 15.636719 L 15.761719 15.679688 C 12.441406 16.609375 10.796875 19.324219 10.417969 22.480469 C 10.746094 22.101562 11.046875 21.707031 11.34375 21.3125 C 11.992188 20.460938 12.632812 19.621094 13.527344 18.957031 Z M 13.527344 18.957031 "/>
</g>
</svg>
