<?xml version="1.0" encoding="UTF-8"?>
<svg xmlns="http://www.w3.org/2000/svg" xmlns:xlink="http://www.w3.org/1999/xlink" width="218px" height="24px" viewBox="0 0 218 24" version="1.1">
<g id="surface1">
<path style=" stroke:none;fill-rule:evenodd;fill:rgb(100%,100%,100%);fill-opacity:1;" d="M 69.882812 21.511719 C 69.882812 21.980469 69.644531 22.210938 69.171875 22.210938 L 60.863281 22.210938 C 60.664062 22.210938 60.5 22.152344 60.375 22.039062 C 60.25 21.921875 60.183594 21.753906 60.183594 21.542969 C 60.183594 21.359375 60.226562 21.210938 60.3125 21.097656 C 60.398438 20.988281 60.53125 20.894531 60.710938 20.824219 L 61.359375 20.625 C 61.519531 20.574219 61.644531 20.476562 61.734375 20.335938 C 61.828125 20.195312 61.871094 19.992188 61.871094 19.726562 L 61.871094 10.90625 C 61.871094 10.765625 61.835938 10.644531 61.765625 10.546875 C 61.695312 10.453125 61.566406 10.363281 61.375 10.28125 L 60.5 9.992188 C 60.269531 9.878906 60.105469 9.761719 60.003906 9.632812 C 59.90625 9.503906 59.855469 9.351562 59.855469 9.167969 C 59.855469 8.984375 59.917969 8.835938 60.042969 8.71875 L 60.089844 8.675781 C 60.210938 8.585938 60.367188 8.542969 60.5625 8.542969 L 61.882812 8.542969 L 61.871094 8.453125 C 61.84375 8.273438 61.773438 8.101562 61.660156 7.9375 C 61.511719 7.71875 61.339844 7.472656 61.148438 7.199219 C 60.957031 6.925781 60.789062 6.597656 60.636719 6.214844 C 60.488281 5.832031 60.410156 5.363281 60.410156 4.804688 C 60.410156 3.472656 60.863281 2.40625 61.765625 1.609375 C 62.667969 0.808594 63.953125 0.410156 65.621094 0.410156 C 66.695312 0.410156 67.585938 0.582031 68.292969 0.929688 C 69 1.273438 69.53125 1.734375 69.882812 2.308594 C 70.234375 2.882812 70.40625 3.511719 70.40625 4.195312 C 70.40625 4.996094 70.199219 5.601562 69.785156 6 C 69.367188 6.402344 68.832031 6.605469 68.179688 6.605469 C 67.457031 6.605469 66.875 6.371094 66.433594 5.902344 C 65.992188 5.433594 65.769531 4.8125 65.769531 4.042969 L 65.769531 2.683594 C 65.769531 2.328125 65.699219 2.066406 65.558594 1.898438 C 65.417969 1.730469 65.203125 1.644531 64.914062 1.644531 C 64.542969 1.644531 64.261719 1.773438 64.070312 2.027344 C 63.878906 2.28125 63.785156 2.648438 63.785156 3.125 C 63.785156 3.613281 63.898438 4.070312 64.121094 4.5 C 64.347656 4.925781 64.625 5.324219 64.957031 5.695312 C 65.289062 6.066406 65.621094 6.421875 65.953125 6.765625 C 66.28125 7.105469 66.5625 7.441406 66.789062 7.773438 L 66.851562 7.871094 C 66.972656 8.070312 67.054688 8.265625 67.09375 8.460938 L 67.109375 8.542969 L 69.339844 8.542969 C 69.570312 8.542969 69.75 8.589844 69.875 8.6875 C 70 8.785156 70.0625 8.933594 70.0625 9.136719 C 70.0625 9.441406 69.929688 9.691406 69.671875 9.882812 C 69.410156 10.078125 68.996094 10.175781 68.4375 10.175781 L 67.367188 10.175781 L 67.367188 19.679688 C 67.367188 19.964844 67.410156 20.183594 67.496094 20.335938 C 67.582031 20.488281 67.71875 20.582031 67.910156 20.609375 L 69.203125 20.808594 C 69.433594 20.839844 69.605469 20.914062 69.714844 21.03125 C 69.824219 21.148438 69.882812 21.308594 69.882812 21.511719 Z M 40.238281 21.863281 C 39.332031 22.300781 38.28125 22.519531 37.074219 22.519531 C 35.800781 22.519531 34.660156 22.25 33.648438 21.710938 C 32.640625 21.171875 31.847656 20.390625 31.265625 19.367188 C 30.679688 18.34375 30.390625 17.101562 30.390625 15.636719 C 30.390625 14.222656 30.695312 12.960938 31.300781 11.84375 C 31.910156 10.730469 32.753906 9.851562 33.839844 9.207031 C 34.921875 8.558594 36.1875 8.238281 37.632812 8.238281 C 38.867188 8.238281 39.90625 8.421875 40.757812 8.785156 C 41.605469 9.152344 42.25 9.648438 42.699219 10.273438 C 43.144531 10.898438 43.367188 11.597656 43.367188 12.371094 C 43.367188 13.183594 43.136719 13.824219 42.667969 14.285156 C 42.203125 14.75 41.566406 14.980469 40.765625 14.980469 C 39.941406 14.980469 39.316406 14.746094 38.890625 14.269531 C 38.460938 13.796875 38.25 13.148438 38.25 12.324219 L 38.25 11.347656 C 38.25 10.851562 38.160156 10.476562 37.976562 10.21875 C 37.796875 9.964844 37.542969 9.839844 37.210938 9.839844 C 36.878906 9.839844 36.582031 9.972656 36.316406 10.242188 C 36.050781 10.511719 35.84375 10.917969 35.699219 11.457031 C 35.550781 11.996094 35.480469 12.660156 35.480469 13.453125 C 35.480469 14.59375 35.648438 15.550781 35.984375 16.324219 C 36.320312 17.097656 36.777344 17.675781 37.359375 18.0625 C 37.945312 18.449219 38.605469 18.640625 39.347656 18.640625 C 40.089844 18.640625 40.714844 18.53125 41.214844 18.316406 C 41.71875 18.097656 42.105469 17.726562 42.375 17.207031 C 42.523438 17.066406 42.644531 16.972656 42.726562 16.933594 C 42.8125 16.894531 42.898438 16.871094 42.976562 16.871094 C 43.078125 16.882812 43.160156 16.929688 43.226562 17.015625 C 43.289062 17.105469 43.316406 17.238281 43.308594 17.421875 C 43.226562 18.417969 42.921875 19.296875 42.390625 20.0625 C 41.859375 20.824219 41.140625 21.425781 40.238281 21.863281 Z M 55.539062 21.558594 C 54.410156 22.175781 53.097656 22.488281 51.605469 22.488281 C 50.148438 22.488281 48.871094 22.183594 47.773438 21.578125 C 46.671875 20.972656 45.816406 20.136719 45.207031 19.070312 C 44.59375 18 44.285156 16.765625 44.285156 15.363281 C 44.285156 14.019531 44.609375 12.8125 45.25 11.738281 C 45.894531 10.664062 46.78125 9.8125 47.914062 9.183594 C 49.050781 8.550781 50.355469 8.238281 51.828125 8.238281 C 53.296875 8.238281 54.574219 8.542969 55.667969 9.152344 C 56.761719 9.761719 57.617188 10.605469 58.226562 11.683594 C 58.839844 12.761719 59.148438 14.007812 59.148438 15.421875 C 59.148438 16.765625 58.828125 17.96875 58.191406 19.03125 C 57.554688 20.09375 56.671875 20.9375 55.539062 21.558594 Z M 52.746094 20.902344 C 52.4375 20.960938 52.132812 20.824219 51.835938 20.488281 C 51.542969 20.152344 51.261719 19.589844 50.992188 18.796875 C 50.726562 18 50.472656 16.960938 50.234375 15.667969 C 50.003906 14.375 49.871094 13.3125 49.84375 12.476562 C 49.8125 11.644531 49.871094 11.015625 50.023438 10.585938 C 50.171875 10.160156 50.40625 9.910156 50.714844 9.839844 C 51.027344 9.777344 51.332031 9.914062 51.625 10.25 C 51.921875 10.585938 52.207031 11.152344 52.476562 11.945312 C 52.746094 12.738281 53.003906 13.78125 53.246094 15.074219 C 53.484375 16.363281 53.617188 17.429688 53.644531 18.269531 C 53.667969 19.109375 53.605469 19.742188 53.449219 20.167969 C 53.292969 20.59375 53.058594 20.839844 52.746094 20.902344 Z M 79.683594 22.210938 C 80.152344 22.210938 80.390625 21.980469 80.390625 21.511719 C 80.390625 21.308594 80.335938 21.148438 80.222656 21.03125 C 80.113281 20.914062 79.945312 20.839844 79.710938 20.808594 L 78.417969 20.609375 C 78.226562 20.582031 78.089844 20.488281 78.003906 20.335938 C 77.917969 20.183594 77.875 19.964844 77.875 19.679688 L 77.875 10.175781 L 78.945312 10.175781 C 79.507812 10.175781 79.917969 10.078125 80.179688 9.882812 C 80.441406 9.691406 80.570312 9.441406 80.570312 9.136719 C 80.570312 8.933594 80.507812 8.785156 80.382812 8.6875 C 80.257812 8.589844 80.078125 8.542969 79.847656 8.542969 L 77.617188 8.542969 L 77.605469 8.460938 C 77.5625 8.265625 77.480469 8.070312 77.359375 7.871094 L 77.296875 7.773438 C 77.070312 7.441406 76.792969 7.105469 76.460938 6.765625 C 76.128906 6.421875 75.796875 6.066406 75.464844 5.695312 C 75.136719 5.324219 74.855469 4.925781 74.632812 4.5 C 74.40625 4.070312 74.292969 3.613281 74.292969 3.125 C 74.292969 2.648438 74.386719 2.28125 74.578125 2.027344 C 74.769531 1.773438 75.050781 1.644531 75.421875 1.644531 C 75.710938 1.644531 75.929688 1.730469 76.070312 1.898438 C 76.210938 2.066406 76.28125 2.328125 76.28125 2.683594 L 76.28125 4.042969 C 76.28125 4.8125 76.5 5.433594 76.941406 5.902344 C 77.382812 6.371094 77.964844 6.605469 78.6875 6.605469 C 79.339844 6.605469 79.875 6.402344 80.292969 6 C 80.707031 5.601562 80.917969 4.996094 80.917969 4.195312 C 80.917969 3.511719 80.742188 2.882812 80.390625 2.308594 C 80.039062 1.734375 79.507812 1.273438 78.800781 0.929688 C 78.09375 0.582031 77.203125 0.410156 76.128906 0.410156 C 74.464844 0.410156 73.179688 0.808594 72.273438 1.609375 C 71.371094 2.40625 70.921875 3.472656 70.921875 4.804688 C 70.921875 5.363281 70.996094 5.832031 71.144531 6.214844 C 71.296875 6.597656 71.46875 6.925781 71.65625 7.199219 C 71.847656 7.472656 72.019531 7.71875 72.167969 7.9375 C 72.28125 8.101562 72.351562 8.273438 72.382812 8.453125 L 72.390625 8.542969 L 71.070312 8.542969 C 70.878906 8.542969 70.71875 8.585938 70.601562 8.675781 L 70.550781 8.71875 C 70.425781 8.835938 70.363281 8.984375 70.363281 9.167969 C 70.363281 9.351562 70.414062 9.503906 70.511719 9.632812 C 70.613281 9.761719 70.78125 9.878906 71.011719 9.992188 L 71.882812 10.28125 C 72.074219 10.363281 72.203125 10.453125 72.273438 10.546875 C 72.34375 10.644531 72.378906 10.765625 72.378906 10.90625 L 72.378906 19.726562 C 72.378906 19.992188 72.335938 20.195312 72.246094 20.335938 C 72.15625 20.476562 72.027344 20.574219 71.867188 20.625 L 71.222656 20.824219 C 71.039062 20.894531 70.90625 20.988281 70.820312 21.097656 C 70.738281 21.210938 70.695312 21.359375 70.695312 21.542969 C 70.695312 21.753906 70.757812 21.921875 70.882812 22.039062 C 71.007812 22.152344 71.171875 22.210938 71.371094 22.210938 Z M 91.472656 21.769531 C 90.496094 22.269531 89.375 22.519531 88.097656 22.519531 C 86.691406 22.519531 85.457031 22.226562 84.394531 21.640625 C 83.332031 21.054688 82.5 20.238281 81.902344 19.183594 C 81.304688 18.132812 81.007812 16.914062 81.007812 15.53125 C 81.007812 14.074219 81.296875 12.800781 81.871094 11.707031 C 82.449219 10.613281 83.285156 9.761719 84.378906 9.152344 C 85.472656 8.542969 86.789062 8.238281 88.324219 8.238281 C 89.628906 8.238281 90.753906 8.492188 91.695312 9.007812 C 92.640625 9.519531 93.363281 10.21875 93.871094 11.097656 C 94.378906 11.976562 94.632812 12.957031 94.632812 14.035156 C 94.632812 14.503906 94.507812 14.871094 94.257812 15.140625 L 94.195312 15.199219 C 93.949219 15.429688 93.609375 15.546875 93.171875 15.546875 L 86.289062 15.546875 L 86.304688 15.617188 C 86.488281 16.453125 86.800781 17.125 87.242188 17.628906 C 87.992188 18.488281 88.996094 18.917969 90.25 18.917969 C 91.054688 18.917969 91.765625 18.734375 92.382812 18.367188 C 93 18 93.414062 17.492188 93.625 16.84375 C 93.746094 16.710938 93.851562 16.621094 93.949219 16.574219 C 94.042969 16.53125 94.125 16.507812 94.195312 16.507812 C 94.296875 16.507812 94.382812 16.546875 94.453125 16.628906 C 94.523438 16.710938 94.558594 16.847656 94.558594 17.039062 C 94.558594 18.039062 94.285156 18.949219 93.746094 19.777344 C 93.203125 20.609375 92.445312 21.273438 91.472656 21.769531 Z M 86.132812 14.320312 C 86.117188 14.089844 86.109375 13.84375 86.109375 13.59375 C 86.109375 12.636719 86.179688 11.882812 86.320312 11.335938 C 86.460938 10.785156 86.644531 10.394531 86.863281 10.167969 C 87.085938 9.9375 87.332031 9.824219 87.601562 9.824219 C 87.953125 9.824219 88.28125 10.125 88.585938 10.722656 C 88.894531 11.324219 89.046875 12.320312 89.046875 13.714844 C 89.046875 14.140625 88.855469 14.355469 88.476562 14.355469 L 86.132812 14.355469 Z M 105.863281 21.769531 C 104.890625 22.269531 103.765625 22.519531 102.492188 22.519531 C 101.085938 22.519531 99.851562 22.226562 98.789062 21.640625 C 97.722656 21.054688 96.894531 20.238281 96.296875 19.183594 C 95.699219 18.132812 95.398438 16.914062 95.398438 15.53125 C 95.398438 14.074219 95.6875 12.800781 96.265625 11.707031 C 96.84375 10.613281 97.679688 9.761719 98.773438 9.152344 C 99.867188 8.542969 101.179688 8.238281 102.71875 8.238281 C 104.023438 8.238281 105.144531 8.492188 106.089844 9.007812 C 107.035156 9.519531 107.757812 10.21875 108.265625 11.097656 C 108.773438 11.976562 109.027344 12.957031 109.027344 14.035156 C 109.027344 14.503906 108.898438 14.871094 108.648438 15.140625 L 108.589844 15.199219 C 108.34375 15.429688 108 15.546875 107.566406 15.546875 L 100.683594 15.546875 L 100.699219 15.617188 C 100.878906 16.453125 101.191406 17.125 101.632812 17.628906 C 102.386719 18.488281 103.390625 18.917969 104.644531 18.917969 C 105.449219 18.917969 106.15625 18.734375 106.773438 18.367188 C 107.390625 18 107.804688 17.492188 108.015625 16.84375 C 108.136719 16.710938 108.246094 16.621094 108.339844 16.574219 C 108.4375 16.53125 108.519531 16.507812 108.589844 16.507812 C 108.691406 16.507812 108.773438 16.546875 108.84375 16.628906 C 108.914062 16.710938 108.949219 16.847656 108.949219 17.039062 C 108.949219 18.039062 108.679688 18.949219 108.136719 19.777344 C 107.59375 20.609375 106.835938 21.273438 105.863281 21.769531 Z M 100.527344 14.320312 C 100.511719 14.089844 100.503906 13.84375 100.503906 13.59375 C 100.503906 12.636719 100.574219 11.882812 100.714844 11.335938 C 100.855469 10.785156 101.035156 10.394531 101.257812 10.167969 C 101.476562 9.9375 101.722656 9.824219 101.996094 9.824219 C 102.347656 9.824219 102.675781 10.125 102.980469 10.722656 C 103.285156 11.324219 103.441406 12.320312 103.441406 13.714844 C 103.441406 14.140625 103.25 14.355469 102.867188 14.355469 L 100.527344 14.355469 Z M 118.699219 22.023438 C 118.574219 22.148438 118.390625 22.210938 118.148438 22.210938 L 110.621094 22.210938 C 110.398438 22.210938 110.226562 22.152344 110.101562 22.03125 C 109.976562 21.90625 109.914062 21.738281 109.914062 21.527344 C 109.914062 21.363281 109.953125 21.230469 110.027344 21.121094 C 110.101562 21.015625 110.203125 20.914062 110.335938 20.824219 L 110.683594 20.6875 C 110.8125 20.625 110.902344 20.53125 110.953125 20.398438 C 111.003906 20.265625 111.027344 20.046875 111.027344 19.742188 L 111.027344 11.988281 C 111.027344 11.746094 111 11.570312 110.945312 11.464844 C 110.890625 11.355469 110.796875 11.273438 110.667969 11.210938 L 110.277344 11.167969 C 110.132812 11.085938 110.03125 11 109.964844 10.90625 C 109.902344 10.816406 109.867188 10.699219 109.867188 10.554688 C 109.867188 10.394531 109.917969 10.25 110.019531 10.121094 C 110.121094 9.992188 110.289062 9.882812 110.53125 9.792969 L 114.804688 8.558594 C 115.058594 8.457031 115.269531 8.382812 115.4375 8.34375 C 115.609375 8.304688 115.753906 8.28125 115.875 8.28125 C 116.046875 8.28125 116.175781 8.34375 116.257812 8.464844 L 116.289062 8.511719 C 116.359375 8.636719 116.40625 8.839844 116.433594 9.121094 L 116.546875 11.492188 L 116.574219 11.40625 C 116.625 11.238281 116.679688 11.082031 116.742188 10.929688 C 117.109375 10.019531 117.59375 9.34375 118.195312 8.902344 C 118.796875 8.457031 119.453125 8.238281 120.167969 8.238281 C 121.03125 8.238281 121.691406 8.527344 122.152344 9.105469 C 122.617188 9.6875 122.847656 10.566406 122.847656 11.746094 C 122.847656 12.914062 122.605469 13.773438 122.125 14.324219 C 121.640625 14.875 121.019531 15.148438 120.257812 15.148438 C 119.515625 15.148438 118.964844 14.960938 118.609375 14.582031 C 118.253906 14.207031 118.0625 13.671875 118.042969 12.980469 L 118.027344 12.371094 C 118.019531 12.136719 117.972656 11.953125 117.894531 11.824219 C 117.8125 11.691406 117.683594 11.625 117.503906 11.625 C 117.320312 11.625 117.164062 11.71875 117.027344 11.90625 C 116.890625 12.09375 116.789062 12.382812 116.71875 12.769531 C 116.648438 13.15625 116.613281 13.648438 116.613281 14.25 L 116.613281 19.617188 C 116.613281 19.902344 116.660156 20.128906 116.75 20.296875 C 116.839844 20.464844 116.980469 20.570312 117.171875 20.609375 L 118.300781 20.839844 C 118.511719 20.871094 118.660156 20.949219 118.75 21.074219 C 118.839844 21.203125 118.886719 21.351562 118.886719 21.527344 C 118.886719 21.730469 118.824219 21.894531 118.699219 22.023438 Z M 130.734375 22.488281 C 132.230469 22.488281 133.542969 22.175781 134.671875 21.558594 C 135.800781 20.9375 136.683594 20.09375 137.324219 19.03125 C 137.960938 17.96875 138.277344 16.765625 138.277344 15.421875 C 138.277344 14.007812 137.972656 12.761719 137.359375 11.683594 C 136.746094 10.605469 135.894531 9.761719 134.800781 9.152344 C 133.707031 8.542969 132.425781 8.238281 130.960938 8.238281 C 129.488281 8.238281 128.179688 8.550781 127.046875 9.183594 C 125.914062 9.8125 125.023438 10.664062 124.382812 11.738281 C 123.738281 12.8125 123.417969 14.019531 123.417969 15.363281 C 123.417969 16.765625 123.726562 18 124.335938 19.070312 C 124.949219 20.136719 125.804688 20.972656 126.902344 21.578125 C 128.003906 22.183594 129.28125 22.488281 130.734375 22.488281 Z M 130.96875 20.488281 C 131.265625 20.824219 131.570312 20.960938 131.878906 20.902344 C 132.191406 20.839844 132.425781 20.59375 132.578125 20.167969 C 132.734375 19.742188 132.800781 19.109375 132.777344 18.269531 C 132.75 17.429688 132.617188 16.363281 132.375 15.074219 C 132.136719 13.78125 131.878906 12.738281 131.609375 11.945312 C 131.335938 11.152344 131.054688 10.585938 130.757812 10.25 C 130.460938 9.914062 130.160156 9.777344 129.847656 9.839844 C 129.535156 9.910156 129.304688 10.160156 129.15625 10.585938 C 129.003906 11.015625 128.945312 11.644531 128.976562 12.476562 C 129.003906 13.3125 129.132812 14.375 129.367188 15.667969 C 129.605469 16.960938 129.859375 18 130.125 18.796875 C 130.390625 19.589844 130.671875 20.152344 130.96875 20.488281 Z M 150.21875 22.519531 C 151.0625 22.519531 151.753906 22.363281 152.296875 22.050781 C 152.835938 21.742188 153.242188 21.375 153.507812 20.945312 C 153.773438 20.519531 153.90625 20.128906 153.90625 19.773438 C 153.90625 19.617188 153.875 19.492188 153.808594 19.390625 C 153.742188 19.289062 153.65625 19.238281 153.546875 19.238281 C 153.496094 19.238281 153.449219 19.246094 153.410156 19.269531 C 153.371094 19.289062 153.335938 19.320312 153.304688 19.359375 C 153.253906 19.542969 153.175781 19.667969 153.070312 19.742188 C 152.964844 19.8125 152.851562 19.847656 152.730469 19.847656 C 152.5625 19.847656 152.433594 19.789062 152.347656 19.671875 C 152.261719 19.554688 152.21875 19.398438 152.21875 19.207031 L 152.21875 12.464844 C 152.21875 11.121094 151.765625 10.082031 150.859375 9.34375 C 149.949219 8.605469 148.527344 8.238281 146.589844 8.238281 C 145.082031 8.238281 143.828125 8.425781 142.816406 8.800781 C 141.808594 9.179688 141.050781 9.660156 140.542969 10.242188 C 140.039062 10.828125 139.785156 11.425781 139.785156 12.035156 C 139.785156 12.6875 139.972656 13.183594 140.347656 13.523438 C 140.726562 13.863281 141.269531 14.035156 141.984375 14.035156 C 142.855469 14.035156 143.542969 13.796875 144.042969 13.324219 C 144.546875 12.851562 144.796875 12.238281 144.796875 11.488281 L 144.796875 10.328125 C 144.796875 10.042969 144.886719 9.820312 145.0625 9.664062 C 145.238281 9.503906 145.453125 9.425781 145.714844 9.425781 C 145.996094 9.425781 146.222656 9.53125 146.386719 9.738281 C 146.550781 9.949219 146.632812 10.230469 146.632812 10.585938 L 146.632812 15.035156 L 146.554688 15.015625 C 146.3125 14.96875 146.03125 14.941406 145.710938 14.9375 L 145.550781 14.933594 C 143.390625 14.933594 141.785156 15.300781 140.726562 16.035156 C 139.664062 16.765625 139.136719 17.789062 139.136719 19.101562 C 139.136719 20.097656 139.5 20.914062 140.226562 21.558594 C 140.957031 22.199219 141.921875 22.519531 143.125 22.519531 C 144.03125 22.519531 144.871094 22.332031 145.65625 21.960938 C 146.242188 21.683594 146.71875 21.316406 147.085938 20.863281 L 147.109375 20.835938 L 147.128906 20.90625 C 147.246094 21.234375 147.457031 21.53125 147.765625 21.792969 L 147.859375 21.871094 C 148.417969 22.300781 149.203125 22.519531 150.21875 22.519531 Z M 145.03125 19.640625 C 145.277344 19.972656 145.601562 20.136719 146 20.136719 L 146.089844 20.132812 C 146.257812 20.121094 146.425781 20.074219 146.585938 19.992188 L 146.632812 19.964844 L 146.632812 16.046875 L 146.558594 16.027344 C 146.390625 15.980469 146.1875 15.957031 145.957031 15.957031 C 145.566406 15.957031 145.25 16.140625 145.015625 16.507812 C 144.78125 16.871094 144.664062 17.410156 144.664062 18.125 C 144.664062 18.804688 144.785156 19.3125 145.03125 19.640625 Z M 160.832031 22.5625 C 162.617188 22.5625 163.988281 22.152344 164.941406 21.328125 C 165.894531 20.503906 166.371094 19.378906 166.371094 17.957031 C 166.371094 17.089844 166.210938 16.332031 165.890625 15.683594 C 165.570312 15.03125 165.007812 14.453125 164.203125 13.949219 C 163.402344 13.449219 162.273438 12.972656 160.816406 12.523438 C 160.273438 12.351562 159.855469 12.175781 159.558594 11.996094 C 159.265625 11.820312 159.0625 11.628906 158.949219 11.425781 C 158.839844 11.222656 158.785156 11.003906 158.785156 10.769531 C 158.785156 10.425781 158.910156 10.144531 159.160156 9.929688 C 159.410156 9.71875 159.78125 9.609375 160.273438 9.609375 C 160.957031 9.609375 161.601562 9.839844 162.210938 10.296875 C 162.816406 10.753906 163.488281 11.539062 164.21875 12.644531 C 164.410156 12.878906 164.601562 13.050781 164.792969 13.15625 C 164.980469 13.265625 165.164062 13.296875 165.332031 13.257812 C 165.542969 13.195312 165.675781 13.054688 165.726562 12.835938 C 165.773438 12.617188 165.765625 12.304688 165.695312 11.898438 L 165.304688 9.089844 C 165.261719 8.796875 165.1875 8.585938 165.078125 8.464844 C 164.96875 8.34375 164.820312 8.28125 164.640625 8.28125 C 164.480469 8.28125 164.28125 8.339844 164.039062 8.449219 C 163.796875 8.5625 163.558594 8.675781 163.324219 8.792969 C 163.089844 8.910156 162.910156 8.96875 162.789062 8.96875 C 162.679688 8.96875 162.515625 8.910156 162.300781 8.785156 C 162.082031 8.664062 161.78125 8.542969 161.390625 8.421875 C 160.996094 8.296875 160.492188 8.238281 159.867188 8.238281 C 158.835938 8.238281 157.902344 8.425781 157.074219 8.800781 C 156.246094 9.179688 155.59375 9.714844 155.117188 10.410156 C 154.640625 11.109375 154.402344 11.9375 154.402344 12.90625 C 154.402344 13.761719 154.582031 14.507812 154.9375 15.148438 C 155.292969 15.789062 155.839844 16.339844 156.570312 16.796875 C 157.304688 17.253906 158.226562 17.625 159.339844 17.910156 C 160.0625 18.101562 160.617188 18.300781 161.003906 18.496094 C 161.390625 18.695312 161.65625 18.910156 161.804688 19.144531 C 161.949219 19.378906 162.019531 19.640625 162.019531 19.925781 C 162.019531 20.300781 161.894531 20.609375 161.644531 20.855469 C 161.394531 21.097656 161.011719 21.222656 160.5 21.222656 C 160.019531 21.222656 159.558594 21.117188 159.125 20.910156 C 158.6875 20.699219 158.238281 20.339844 157.777344 19.832031 C 157.3125 19.324219 156.796875 18.628906 156.226562 17.742188 C 156.054688 17.507812 155.859375 17.34375 155.644531 17.253906 C 155.429688 17.164062 155.210938 17.167969 154.992188 17.269531 C 154.777344 17.351562 154.644531 17.523438 154.585938 17.789062 C 154.523438 18.050781 154.539062 18.378906 154.628906 18.765625 L 155.097656 21.800781 C 155.167969 22.105469 155.265625 22.308594 155.398438 22.410156 C 155.527344 22.511719 155.667969 22.5625 155.816406 22.5625 C 155.988281 22.5625 156.195312 22.507812 156.441406 22.394531 L 157.179688 22.058594 C 157.425781 21.949219 157.625 21.890625 157.777344 21.890625 C 157.925781 21.890625 158.125 21.949219 158.371094 22.058594 C 158.617188 22.171875 158.9375 22.285156 159.332031 22.394531 C 159.730469 22.507812 160.230469 22.5625 160.832031 22.5625 Z M 175.105469 21.992188 C 174.441406 22.34375 173.660156 22.519531 172.753906 22.519531 C 171.230469 22.519531 170.082031 22.148438 169.316406 21.402344 C 168.546875 20.660156 168.164062 19.492188 168.164062 17.894531 L 168.164062 11 C 168.164062 10.785156 168.144531 10.621094 168.105469 10.511719 C 168.0625 10.398438 167.964844 10.308594 167.800781 10.234375 L 167.09375 10.007812 C 166.925781 9.925781 166.8125 9.828125 166.761719 9.710938 C 166.714844 9.59375 166.6875 9.449219 166.6875 9.273438 C 166.6875 9.0625 166.761719 8.886719 166.914062 8.746094 C 167.066406 8.609375 167.25 8.542969 167.472656 8.542969 L 168.210938 8.542969 C 168.300781 8.542969 168.394531 8.507812 168.496094 8.433594 C 168.59375 8.363281 168.730469 8.222656 168.902344 8.007812 L 171.6875 5.671875 C 171.886719 5.429688 172.089844 5.242188 172.289062 5.117188 C 172.488281 4.988281 172.691406 4.925781 172.890625 4.925781 C 173.121094 4.925781 173.300781 4.996094 173.433594 5.140625 L 173.472656 5.191406 C 173.578125 5.332031 173.628906 5.539062 173.628906 5.8125 L 173.628906 8.542969 L 176.777344 8.542969 C 176.996094 8.542969 177.167969 8.589844 177.289062 8.6875 C 177.40625 8.785156 177.46875 8.933594 177.46875 9.136719 C 177.46875 9.421875 177.34375 9.664062 177.089844 9.871094 L 177.035156 9.910156 C 176.785156 10.085938 176.398438 10.175781 175.886719 10.175781 L 173.628906 10.175781 L 173.628906 17.132812 C 173.628906 17.894531 173.757812 18.460938 174.011719 18.824219 C 174.269531 19.191406 174.644531 19.375 175.132812 19.375 C 175.34375 19.375 175.539062 19.328125 175.722656 19.238281 C 175.902344 19.144531 176.066406 19.027344 176.210938 18.878906 C 176.355469 18.730469 176.496094 18.566406 176.625 18.382812 C 176.753906 18.199219 176.882812 18.015625 177 17.832031 C 177.101562 17.792969 177.191406 17.8125 177.265625 17.886719 C 177.339844 17.964844 177.371094 18.117188 177.363281 18.351562 C 177.292969 19.175781 177.0625 19.902344 176.679688 20.527344 C 176.292969 21.152344 175.765625 21.640625 175.105469 21.992188 Z M 184.964844 22.519531 C 186.242188 22.519531 187.363281 22.269531 188.339844 21.769531 C 189.3125 21.273438 190.070312 20.609375 190.613281 19.777344 C 191.152344 18.949219 191.425781 18.039062 191.425781 17.039062 C 191.425781 16.847656 191.390625 16.710938 191.320312 16.628906 C 191.25 16.546875 191.164062 16.507812 191.0625 16.507812 C 190.992188 16.507812 190.910156 16.53125 190.816406 16.574219 C 190.71875 16.621094 190.613281 16.710938 190.492188 16.84375 C 190.28125 17.492188 189.867188 18 189.25 18.367188 C 188.632812 18.734375 187.921875 18.917969 187.117188 18.917969 C 185.863281 18.917969 184.859375 18.488281 184.109375 17.628906 C 183.667969 17.125 183.355469 16.453125 183.171875 15.617188 L 183.15625 15.546875 L 190.039062 15.546875 C 190.476562 15.546875 190.816406 15.429688 191.0625 15.199219 L 191.125 15.140625 C 191.375 14.871094 191.5 14.503906 191.5 14.035156 C 191.5 12.957031 191.246094 11.976562 190.738281 11.097656 C 190.234375 10.21875 189.507812 9.519531 188.566406 9.007812 C 187.621094 8.492188 186.496094 8.238281 185.191406 8.238281 C 183.65625 8.238281 182.339844 8.542969 181.246094 9.152344 C 180.152344 9.761719 179.316406 10.613281 178.742188 11.707031 C 178.164062 12.800781 177.875 14.074219 177.875 15.53125 C 177.875 16.914062 178.171875 18.132812 178.769531 19.183594 C 179.367188 20.238281 180.199219 21.054688 181.261719 21.640625 C 182.328125 22.226562 183.5625 22.519531 184.964844 22.519531 Z M 182.980469 13.59375 C 182.980469 13.84375 182.984375 14.089844 183 14.320312 L 183 14.355469 L 185.34375 14.355469 C 185.722656 14.355469 185.914062 14.140625 185.914062 13.714844 C 185.914062 12.320312 185.761719 11.324219 185.457031 10.722656 C 185.148438 10.125 184.820312 9.824219 184.46875 9.824219 C 184.199219 9.824219 183.953125 9.9375 183.730469 10.167969 C 183.511719 10.394531 183.328125 10.785156 183.1875 11.335938 C 183.050781 11.882812 182.980469 12.636719 182.980469 13.59375 Z M 200.625 22.210938 C 200.863281 22.210938 201.046875 22.148438 201.171875 22.023438 C 201.300781 21.894531 201.363281 21.730469 201.363281 21.527344 C 201.363281 21.351562 201.316406 21.203125 201.226562 21.074219 C 201.136719 20.949219 200.984375 20.871094 200.773438 20.839844 L 199.644531 20.609375 C 199.453125 20.570312 199.3125 20.464844 199.222656 20.296875 C 199.132812 20.128906 199.085938 19.902344 199.085938 19.617188 L 199.085938 14.25 C 199.085938 13.648438 199.121094 13.15625 199.195312 12.769531 C 199.265625 12.382812 199.367188 12.09375 199.503906 11.90625 C 199.636719 11.71875 199.796875 11.625 199.976562 11.625 C 200.15625 11.625 200.289062 11.691406 200.367188 11.824219 C 200.449219 11.953125 200.492188 12.136719 200.503906 12.371094 L 200.519531 12.980469 C 200.539062 13.671875 200.726562 14.207031 201.082031 14.582031 C 201.4375 14.960938 201.988281 15.148438 202.730469 15.148438 C 203.496094 15.148438 204.117188 14.875 204.597656 14.324219 C 205.078125 13.773438 205.320312 12.914062 205.320312 11.746094 C 205.320312 10.566406 205.089844 9.6875 204.628906 9.105469 C 204.167969 8.527344 203.503906 8.238281 202.640625 8.238281 C 201.929688 8.238281 201.269531 8.457031 200.667969 8.902344 C 200.066406 9.34375 199.582031 10.019531 199.214844 10.929688 C 199.15625 11.082031 199.097656 11.238281 199.046875 11.40625 L 199.023438 11.492188 L 198.90625 9.121094 C 198.878906 8.839844 198.832031 8.636719 198.761719 8.511719 L 198.734375 8.464844 C 198.648438 8.34375 198.519531 8.28125 198.351562 8.28125 C 198.230469 8.28125 198.085938 8.304688 197.914062 8.34375 C 197.742188 8.382812 197.53125 8.457031 197.28125 8.558594 L 193.003906 9.792969 C 192.765625 9.882812 192.59375 9.992188 192.492188 10.121094 C 192.394531 10.25 192.34375 10.394531 192.34375 10.554688 C 192.34375 10.699219 192.375 10.816406 192.441406 10.90625 C 192.507812 11 192.609375 11.085938 192.75 11.167969 L 193.140625 11.210938 C 193.273438 11.273438 193.363281 11.355469 193.417969 11.464844 C 193.476562 11.570312 193.503906 11.746094 193.503906 11.988281 L 193.503906 19.742188 C 193.503906 20.046875 193.476562 20.265625 193.425781 20.398438 C 193.378906 20.53125 193.285156 20.625 193.15625 20.6875 L 192.808594 20.824219 C 192.679688 20.914062 192.578125 21.015625 192.5 21.121094 C 192.425781 21.230469 192.390625 21.363281 192.390625 21.527344 C 192.390625 21.738281 192.449219 21.90625 192.578125 22.03125 C 192.703125 22.152344 192.875 22.210938 193.097656 22.210938 Z M 216.476562 21.328125 C 215.523438 22.152344 214.152344 22.5625 212.367188 22.5625 C 211.765625 22.5625 211.265625 22.507812 210.867188 22.394531 C 210.472656 22.285156 210.152344 22.171875 209.90625 22.058594 C 209.660156 21.949219 209.460938 21.890625 209.308594 21.890625 C 209.160156 21.890625 208.960938 21.949219 208.714844 22.058594 L 207.976562 22.394531 C 207.734375 22.507812 207.523438 22.5625 207.351562 22.5625 C 207.203125 22.5625 207.0625 22.511719 206.933594 22.410156 C 206.800781 22.308594 206.699219 22.105469 206.628906 21.800781 L 206.164062 18.765625 C 206.074219 18.378906 206.058594 18.050781 206.117188 17.789062 C 206.179688 17.523438 206.316406 17.351562 206.527344 17.269531 C 206.746094 17.167969 206.964844 17.164062 207.179688 17.253906 C 207.398438 17.34375 207.589844 17.507812 207.757812 17.742188 C 208.332031 18.628906 208.847656 19.324219 209.308594 19.832031 C 209.773438 20.339844 210.222656 20.699219 210.660156 20.910156 C 211.09375 21.117188 211.554688 21.222656 212.035156 21.222656 C 212.546875 21.222656 212.929688 21.097656 213.179688 20.855469 C 213.429688 20.609375 213.554688 20.300781 213.554688 19.925781 C 213.554688 19.640625 213.484375 19.378906 213.339844 19.144531 C 213.191406 18.910156 212.925781 18.695312 212.539062 18.496094 C 212.152344 18.300781 211.597656 18.101562 210.875 17.910156 C 209.761719 17.625 208.839844 17.253906 208.105469 16.796875 C 207.375 16.339844 206.828125 15.789062 206.472656 15.148438 C 206.117188 14.507812 205.9375 13.761719 205.9375 12.90625 C 205.9375 11.9375 206.175781 11.109375 206.652344 10.410156 C 207.128906 9.714844 207.78125 9.179688 208.609375 8.800781 C 209.4375 8.425781 210.371094 8.238281 211.402344 8.238281 C 212.023438 8.238281 212.53125 8.296875 212.925781 8.421875 C 213.316406 8.542969 213.617188 8.664062 213.835938 8.785156 C 214.050781 8.910156 214.214844 8.96875 214.324219 8.96875 C 214.445312 8.96875 214.621094 8.910156 214.859375 8.792969 C 215.09375 8.675781 215.332031 8.5625 215.574219 8.449219 C 215.816406 8.339844 216.015625 8.28125 216.175781 8.28125 C 216.355469 8.28125 216.503906 8.34375 216.613281 8.464844 C 216.722656 8.585938 216.796875 8.796875 216.839844 9.089844 L 217.230469 11.898438 C 217.300781 12.304688 217.308594 12.617188 217.261719 12.835938 C 217.210938 13.054688 217.078125 13.195312 216.867188 13.257812 C 216.699219 13.296875 216.515625 13.265625 216.328125 13.15625 C 216.136719 13.050781 215.945312 12.878906 215.753906 12.644531 C 215.023438 11.539062 214.351562 10.753906 213.746094 10.296875 C 213.136719 9.839844 212.492188 9.609375 211.808594 9.609375 C 211.316406 9.609375 210.945312 9.71875 210.695312 9.929688 C 210.445312 10.144531 210.320312 10.425781 210.320312 10.769531 C 210.320312 11.003906 210.375 11.222656 210.484375 11.425781 C 210.59375 11.628906 210.796875 11.820312 211.09375 11.996094 C 211.390625 12.175781 211.808594 12.351562 212.351562 12.523438 C 213.808594 12.972656 214.9375 13.449219 215.738281 13.949219 C 216.542969 14.453125 217.105469 15.03125 217.425781 15.683594 C 217.746094 16.332031 217.90625 17.089844 217.90625 17.957031 C 217.90625 19.378906 217.429688 20.503906 216.476562 21.328125 Z M 216.476562 21.328125 "/>
<path style=" stroke:none;fill-rule:evenodd;fill:rgb(5.490196%,52.941176%,51.764706%);fill-opacity:1;" d="M 13.292969 4.105469 C 10.046875 0.863281 5.234375 0.398438 2.566406 3.066406 C -0.105469 5.734375 0.363281 10.542969 3.601562 13.785156 C 4.46875 14.648438 5.464844 15.308594 6.515625 15.785156 C 6.859375 13.78125 7.847656 11.855469 9.351562 10.273438 C 8.855469 10.097656 8.34375 9.945312 7.8125 9.800781 C 4.660156 8.9375 3.09375 6.308594 2.730469 3.230469 C 3.03125 3.59375 3.308594 3.976562 3.582031 4.355469 C 4.113281 5.09375 4.644531 5.828125 5.363281 6.417969 C 6.480469 7.339844 7.707031 7.691406 9.050781 8.082031 C 9.101562 8.097656 9.15625 8.113281 9.207031 8.128906 C 9.84375 8.3125 10.394531 8.582031 10.902344 8.902344 C 12.234375 7.929688 13.738281 7.28125 15.292969 7.015625 C 14.820312 5.960938 14.15625 4.96875 13.292969 4.105469 Z M 7.800781 16.554688 C 8.007812 14.546875 8.980469 12.585938 10.539062 11.027344 C 13.785156 7.785156 18.597656 7.316406 21.265625 9.988281 C 23.9375 12.65625 23.472656 17.464844 20.226562 20.710938 C 18.667969 22.265625 16.703125 23.238281 14.695312 23.445312 C 14.429688 23.472656 14.164062 23.488281 13.90625 23.488281 C 12.179688 23.488281 10.636719 22.882812 9.5 21.746094 C 8.191406 20.441406 7.589844 18.597656 7.800781 16.554688 Z M 12.550781 18.199219 C 13.613281 17.390625 14.765625 17.066406 16.019531 16.726562 C 19.167969 15.863281 20.734375 13.234375 21.101562 10.15625 C 20.800781 10.515625 20.527344 10.894531 20.253906 11.273438 C 19.71875 12.011719 19.1875 12.75 18.464844 13.34375 C 17.34375 14.265625 16.117188 14.621094 14.765625 15.011719 L 14.625 15.050781 C 11.539062 15.945312 10.015625 18.550781 9.664062 21.582031 C 9.96875 21.21875 10.246094 20.839844 10.523438 20.460938 C 11.125 19.644531 11.71875 18.835938 12.550781 18.199219 Z M 12.550781 18.199219 "/>
</g>
</svg>
